<svg width="1024" height="1024" viewBox="0 0 1024 1024" fill="none" xmlns="http://www.w3.org/2000/svg">
<rect width="1024" height="1024" fill="#F5C84B"/>
<path d="M718.058 765.722C693.39 784.25 666.666 794.115 637.03 795.343C583.858 797.564 536.097 779.601 488.639 759.017L457.305 745.428C471.122 698.327 474.725 517.954 479.129 468.866L488.115 368.65C537.008 356.399 583.388 334.076 611.258 291.542C639.79 247.959 638.424 178.702 588.344 156.614C542.322 136.306 488.681 152.985 461.819 195.299C437.469 233.666 429.504 274.848 421.76 319.949C391.558 317.065 365.33 305.752 349.718 277.718C334.948 283.099 322.497 294.577 317.155 309.45C311.51 325.108 316.948 340.712 328.944 351.28C350.657 370.402 384.104 375.134 414.251 375.672L409.364 430.706C404.547 484.911 404.644 669.41 394.015 722.76C375.725 718.676 357.628 718.332 340.718 724.223C312.835 733.949 296.201 758.396 297.03 787.631C297.775 814.009 314.961 834.676 340.263 841.105C382.627 851.866 417.757 830.523 438.131 792.859L477.831 817.982C536.138 854.888 623.833 897.877 687.786 865.676C725.595 846.651 736.9 803.786 718.044 765.736L718.058 765.722ZM520.871 215.676C526.738 205.191 536.828 198.43 548.893 198.61C560.184 198.775 568.094 206.087 569.861 217.249C573.077 244.427 562.158 271.192 541.425 289.266C527.856 300.813 513.1 308.994 494.354 314.058C499.351 280.946 503.754 243.669 520.871 215.662V215.676ZM372.854 787.548C366.656 795.922 355.268 798.778 347.579 792.059C343.162 788.21 343.106 781.905 344.666 776.869C348.918 763.225 368.008 761.211 384.021 765.956C380.874 773.793 377.947 780.663 372.867 787.548H372.854Z" fill="url(#paint0_linear_350_5824)"/>
<defs>
<linearGradient id="paint0_linear_350_5824" x1="512" y1="148" x2="512" y2="877" gradientUnits="userSpaceOnUse">
<stop stop-color="#16161A"/>
<stop offset="1" stop-color="#0C0C0E"/>
</linearGradient>
</defs>
</svg>
