<svg width="260" height="137" viewBox="0 0 260 137" fill="none" xmlns="http://www.w3.org/2000/svg">
<g clip-path="url(#clip0_335_5726)">
<path d="M149.724 95.8937L149.673 99.5165C149.66 100.415 150.138 101.158 151.02 101.261C153.195 101.515 153.379 97.8746 153.305 94.779C154.337 94.3271 155.684 94.2794 156.758 94.7162C156.359 97.6863 157.195 100.46 159.224 100.066C160.855 99.7475 160.221 96.2276 159.763 93.3856C160.689 92.7278 161.836 92.4818 163.193 92.4517C164.709 96.7774 164.504 102.941 160.139 103.825C158.204 104.216 156.579 103.672 155.314 101.881C154.503 104.093 152.753 105.12 150.572 105.042C148.551 104.97 146.984 103.86 146.488 101.912C146.002 100.006 146.041 98.0252 146.532 96.077C147.49 95.6627 148.431 95.6226 149.721 95.8962L149.724 95.8937Z" fill="url(#paint0_linear_335_5726)"/>
<path d="M108.354 95.3214C111.433 95.3214 113.928 92.8698 113.928 89.8457C113.928 86.8216 111.433 84.3701 108.354 84.3701C105.276 84.3701 102.78 86.8216 102.78 89.8457C102.78 92.8698 105.276 95.3214 108.354 95.3214Z" fill="url(#paint1_linear_335_5726)"/>
<path d="M95.6286 95.3164C98.7016 95.3164 101.193 92.8694 101.193 89.8508C101.193 86.8323 98.7016 84.3853 95.6286 84.3853C92.5556 84.3853 90.0645 86.8323 90.0645 89.8508C90.0645 92.8694 92.5556 95.3164 95.6286 95.3164Z" fill="url(#paint2_linear_335_5726)"/>
<path d="M220.013 86.961C219.609 86.5719 219.274 85.8312 219.266 85.1007L219.139 71.7668C219.108 68.5282 218.093 65.4401 216.146 62.8592C214.282 60.3888 211.637 58.8071 208.557 57.9636C201.644 56.0731 194.135 57.0472 187.893 60.429C186.82 61.0089 185.992 61.8575 186.275 63.1404C186.794 65.4903 187.76 67.7624 189.151 69.7634L192.762 68.1441C195.921 66.7281 199.364 66.1557 202.778 66.7883C205.825 67.3557 207.663 69.7634 207.366 72.977C201.449 71.9828 195.096 71.9953 189.68 75.0859C185.815 77.2902 183.832 81.2619 183.916 85.6455C184.013 90.7018 186.942 95.0376 192.003 96.667C197.779 98.5248 204.654 97.0084 208.55 92.0977C209.089 94.2895 210.533 95.8887 212.734 96.6017C215.826 97.601 219.182 97.011 221.896 95.241L222.41 87.428C221.393 87.4456 220.544 87.4757 220.015 86.9635L220.013 86.961ZM207.226 84.4379C205.687 87.7142 201.184 89.1402 197.999 87.8372C196.051 87.0388 195.489 85.1182 195.773 83.3432C196.45 79.0928 202.692 79.1556 207.422 79.9062C207.267 81.2845 207.926 82.9491 207.228 84.4379H207.226Z" fill="url(#paint3_linear_335_5726)"/>
<path d="M258.496 66.0376C256.909 61.7495 253.07 58.91 248.413 58.7167C244.053 58.4053 240.286 60.105 237.385 63.6475L237.344 55.8069C241.929 54.8579 246.013 52.985 249.124 49.676C253.252 45.2824 254.481 38.8653 252.378 33.3219C250.76 29.0564 246.821 26.7542 242.389 26.5634C237.945 26.3726 234.016 27.884 231.12 31.2582C227.246 35.7672 226.313 42.3977 225.98 48.5738C220.917 47.8633 215.918 45.2397 213.715 40.6378C211.885 41.2529 210.229 42.3626 209.28 44.0598C208.189 46.003 208.35 48.4131 209.49 50.271C212.912 54.7775 220.174 56.3667 225.873 56.6931L225.899 99.878C229.748 100.167 233.472 100.219 237.339 99.883L237.421 76.7553C237.428 74.8674 237.893 73.1049 238.918 71.6086C240.751 68.9223 244.697 68.4051 246.982 70.8052C247.956 71.827 248.413 73.4238 248.477 74.9251C248.965 86.15 248.677 97.2494 247.066 108.376C246.586 111.695 245.696 114.804 243.746 117.452C240.511 121.846 230.952 121.931 227.913 116.742L225.584 112.77C224.462 110.854 223.55 108.951 222.221 107.174C216.841 99.9659 206.541 99.5039 200.12 105.258C197.843 107.299 196.067 109.752 194.776 112.531L191.609 119.34C190.615 121.477 188.849 122.755 186.51 123.046L175.106 124.469C163.16 125.426 151.37 125.448 139.416 124.444C135.268 124.095 131.431 123.626 127.452 122.792C124.873 122.252 123.01 120.52 122.452 117.982C121.238 112.444 123.342 102.17 124.589 95.8811C122.141 94.9547 119.761 94.4601 117.267 94.4802C114.657 94.5028 113.52 96.3531 112.85 98.8838C106.223 99.042 98.7135 99.8303 93.0574 103.235C85.8907 107.55 83.6594 117.005 88.5053 123.844C93.2951 130.598 107.153 131.871 113.187 125.117C114.077 129.415 118.734 132.91 122.565 133.563L132.832 135.313C151.035 137.251 169.325 137.057 187.43 134.492C191.4 133.929 194.771 132.343 197.322 129.332C202.221 132.659 207.369 135.092 213.49 134.795C218.198 134.765 222.136 132.205 224.197 127.984C229.134 132.953 237.392 133.063 243.974 131.03C252.72 127.924 256.585 120.179 258.179 111.477C259.074 106.599 259.751 101.886 259.797 96.8879L259.999 74.0263C260.022 71.2245 259.465 68.6235 258.507 66.0376H258.496ZM242.622 34.3563C243.562 34.4893 244.401 35.3003 244.664 36.4476C245.809 41.4337 242.911 46.6005 237.518 48.0315C237.707 42.9802 238.049 33.701 242.622 34.3563ZM111.232 115.411C111.102 117.319 104.549 120.206 98.8183 117.673C97.4943 117.088 96.6381 115.881 96.4822 114.783C95.9404 110.96 101.366 108.843 105.412 108.562L111.725 108.123L111.235 115.409L111.232 115.411ZM216.726 120.39C216.521 126.096 206.924 123.513 202.459 120.011C203.307 117.914 204.197 116.174 205.643 114.588C207.576 112.469 210.86 111.482 213.355 113.282C215.568 114.879 216.815 117.816 216.723 120.39H216.726Z" fill="url(#paint4_linear_335_5726)"/>
<path d="M79.6647 46.6308V53.8814C81.1011 53.8588 82.3713 54.7626 82.9311 56.0932C83.1739 56.6732 83.225 57.218 83.3068 57.8858L83.3119 83.0596C87.0997 82.1332 90.8492 81.3926 94.7034 80.9281V61.7471C94.7136 60.778 94.7775 59.2742 95.1149 58.4406C95.7002 56.9971 97.0957 54.5417 100.081 54.5417C102.542 54.5417 105.936 56.166 105.936 61.2726L105.965 66.0051V80.2829L106.115 80.2678C110.128 79.831 114.177 79.8034 118.197 80.1875L118.238 62.6635C118.238 62.6635 118.412 55.4882 123.95 55.5032C127.902 55.5133 129.43 60.0399 129.525 63.3815L129.532 81.1842C133.307 81.6361 137.029 82.3265 140.857 83.1801L140.868 69.4321C140.967 67.5115 141.261 65.7817 142.649 64.4535C144.037 63.1254 146.406 63.1405 147.694 64.4887C148.814 65.6586 149.039 67.0068 149.161 68.6387V88.1461H160.471V69.0856C160.635 67.3935 160.962 65.8971 162.148 64.6519C163.553 63.1756 166.163 63.0928 167.484 64.4786C167.888 64.9029 168.205 65.3473 168.404 65.9047C168.747 66.8637 168.905 67.8579 168.908 68.9023L168.931 85.2664C168.939 90.5287 169.317 95.9265 171.489 100.621C171.939 101.59 172.407 102.467 173.028 103.338C174.585 105.517 176.808 107.089 179.298 107.817H185.411C188.302 106.963 190.756 104.533 191.195 101.425C188.655 101.297 186.135 100.659 184.358 98.889C183.364 97.9626 182.702 96.8579 182.142 95.6453C180.43 91.9321 180.379 87.7795 180.361 83.745L180.353 81.7817L180.348 69.4798C180.346 64.1046 179.42 58.054 174.303 55.2396C172.793 54.4086 171.17 53.9266 169.445 53.8011C164.936 53.5299 160.732 55.2748 158.102 58.9453C156.42 56.4347 153.951 54.6547 151.022 54.0371C146.245 53.0303 141.581 54.8078 138.7 58.7344C137.642 54.961 135.963 51.6871 132.863 49.2569C132.863 49.2569 130.013 47.2283 127.265 46.6358C125.581 46.2718 123.015 46.0584 120.372 46.6358C117.249 47.3162 114.816 49.2167 112.676 51.7323C111.368 49.6711 109.037 47.866 106.775 47.0877C104.181 46.1939 101.799 46.2843 99.5289 46.6358C96.7737 47.0626 94.4759 48.9681 92.8274 51.2729C92.7891 51.3281 92.7149 51.4059 92.6766 51.4135C92.6383 51.421 92.559 51.3206 92.5309 51.2729C91.6543 49.7791 90.5373 48.6518 89.1648 47.8585C87.7923 47.0651 86.2793 46.7136 84.7253 46.6961L79.6621 46.6358L79.6647 46.6308Z" fill="url(#paint5_linear_335_5726)"/>
<path d="M78.0085 112.727C73.4411 116.099 68.4929 117.894 63.0055 118.117C53.1603 118.521 44.317 115.253 35.5299 111.507L29.7281 109.034C32.2865 100.463 32.9536 67.6391 33.7689 58.7064L35.4328 40.4694C44.4857 38.2399 53.0734 34.1778 58.2337 26.4376C63.5167 18.5066 63.2636 5.90339 53.9909 1.88391C45.4697 -1.8117 35.5376 1.22362 30.5638 8.92364C26.0553 15.9056 24.5805 23.3998 23.1467 31.6069C17.5545 31.0822 12.6983 29.0235 9.80761 23.922C7.07283 24.9011 4.76744 26.9899 3.77832 29.6964C2.73297 32.5459 3.73998 35.3854 5.96103 37.3085C9.98141 40.7882 16.1743 41.6493 21.7563 41.7473L20.8515 51.7621C19.9595 61.6262 19.9774 95.2005 18.0094 104.909C14.6229 104.166 11.2721 104.103 8.14119 105.175C2.97833 106.945 -0.101495 111.394 0.0518574 116.714C0.189874 121.514 3.37193 125.275 8.05684 126.445C15.9008 128.403 22.4055 124.519 26.178 117.665L33.5286 122.237C44.3246 128.953 60.5621 136.776 72.4034 130.916C79.404 127.454 81.4972 119.654 78.0059 112.73L78.0085 112.727ZM41.4978 12.6318C42.5841 10.7237 44.4524 9.49355 46.6863 9.52618C48.777 9.55631 50.2415 10.8869 50.5686 12.918C51.1641 17.8639 49.1425 22.7345 45.3035 26.0234C42.7911 28.1247 40.0589 29.6135 36.588 30.5349C37.5132 24.5095 38.3286 17.7258 41.4978 12.6293V12.6318ZM14.0913 116.699C12.9437 118.223 10.8351 118.742 9.41145 117.52C8.59358 116.819 8.58335 115.672 8.87216 114.756C9.65937 112.273 13.1941 111.906 16.159 112.77C15.5762 114.196 15.0344 115.446 14.0938 116.699H14.0913Z" fill="url(#paint6_linear_335_5726)"/>
<path d="M77.1523 73.5162C76.7434 73.1094 76.3549 72.3537 76.3498 71.573L76.2143 57.024C76.1836 53.6196 74.9185 50.4086 72.7613 47.8076C68.1147 42.2115 59.5398 41.516 52.4217 42.7211C49.1221 43.281 46.1828 44.4133 43.356 46.128C42.5177 46.6351 41.9094 47.3833 42.165 48.4779C42.7426 50.9509 43.7011 53.2933 44.9995 55.4649C45.6895 55.475 46.1573 55.1963 46.6838 54.9126C50.1189 53.0648 53.807 52.043 57.7737 52.2338C61.95 52.4346 64.3627 54.8925 64.1813 58.9898C56.4881 57.624 46.947 58.1086 42.1752 64.2947C40.381 66.622 39.8034 69.4264 39.8647 72.3337C39.9746 77.8244 43.4762 82.4062 49.0122 83.8322C54.8114 85.326 61.5232 83.8272 65.2573 78.9165C65.9959 80.9526 67.1128 82.5192 69.1064 83.3125C72.4521 84.6406 76.2501 84.1285 79.22 82.1501L79.6698 73.9756C78.5862 74.081 77.7478 74.0986 77.1574 73.5111L77.1523 73.5162ZM63.9282 70.8775C62.4254 74.2392 57.8606 75.6903 54.538 74.5832C53.0479 74.0861 52.253 72.8383 52.0153 71.7864C51.6703 70.2599 51.9412 68.7335 53.007 67.6464C54.2747 66.3459 56.1839 65.6906 58.0012 65.7961L64.2043 66.1526C63.9845 67.5585 64.6311 69.3084 63.9282 70.8775Z" fill="url(#paint7_linear_335_5726)"/>
</g>
<defs>
<linearGradient id="paint0_linear_335_5726" x1="146.143" y1="98.749" x2="164.048" y2="98.749" gradientUnits="userSpaceOnUse">
<stop stop-color="#F6D366"/>
<stop offset="1" stop-color="#D9A92E"/>
</linearGradient>
<linearGradient id="paint1_linear_335_5726" x1="102.78" y1="89.8457" x2="113.928" y2="89.8457" gradientUnits="userSpaceOnUse">
<stop stop-color="#F6D366"/>
<stop offset="1" stop-color="#D9A92E"/>
</linearGradient>
<linearGradient id="paint2_linear_335_5726" x1="90.0645" y1="89.8508" x2="101.193" y2="89.8508" gradientUnits="userSpaceOnUse">
<stop stop-color="#F6D366"/>
<stop offset="1" stop-color="#D9A92E"/>
</linearGradient>
<linearGradient id="paint3_linear_335_5726" x1="183.914" y1="77.2223" x2="222.41" y2="77.2223" gradientUnits="userSpaceOnUse">
<stop stop-color="#F6D366"/>
<stop offset="1" stop-color="#D9A92E"/>
</linearGradient>
<linearGradient id="paint4_linear_335_5726" x1="85.9233" y1="81.58" x2="260" y2="81.58" gradientUnits="userSpaceOnUse">
<stop stop-color="#F6D366"/>
<stop offset="1" stop-color="#D9A92E"/>
</linearGradient>
<linearGradient id="paint5_linear_335_5726" x1="79.6621" y1="77.0475" x2="191.195" y2="77.0475" gradientUnits="userSpaceOnUse">
<stop stop-color="#F6D366"/>
<stop offset="1" stop-color="#D9A92E"/>
</linearGradient>
<linearGradient id="paint6_linear_335_5726" x1="0.0463867" y1="66.6467" x2="79.6642" y2="66.6467" gradientUnits="userSpaceOnUse">
<stop stop-color="#F6D366"/>
<stop offset="1" stop-color="#D9A92E"/>
</linearGradient>
<linearGradient id="paint7_linear_335_5726" x1="39.8604" y1="63.3022" x2="79.6698" y2="63.3022" gradientUnits="userSpaceOnUse">
<stop stop-color="#F6D366"/>
<stop offset="1" stop-color="#D9A92E"/>
</linearGradient>
<clipPath id="clip0_335_5726">
<rect width="260" height="137" fill="white"/>
</clipPath>
</defs>
</svg>
